<mxfile host="app.diagrams.net" agent="Mozilla/5.0 (Windows NT 10.0; Win64; x64) AppleWebKit/537.36 (KHTML, like Gecko) Chrome/130.0.0.0 Safari/537.36 Edg/130.0.0.0" version="24.8.6">
  <diagram name="Page-1" id="C4DRcMLoKpRO-ov5i0Zj">
    <mxGraphModel dx="1648" dy="1586" grid="1" gridSize="10" guides="1" tooltips="1" connect="1" arrows="1" fold="1" page="1" pageScale="1" pageWidth="1169" pageHeight="827" math="0" shadow="0">
      <root>
        <mxCell id="0" />
        <mxCell id="1" parent="0" />
        <mxCell id="vSl3ZevUBLq_02znJNMd-4" value="" style="edgeStyle=orthogonalEdgeStyle;rounded=0;orthogonalLoop=1;jettySize=auto;html=1;" edge="1" parent="1" source="vSl3ZevUBLq_02znJNMd-1" target="vSl3ZevUBLq_02znJNMd-3">
          <mxGeometry relative="1" as="geometry" />
        </mxCell>
        <mxCell id="vSl3ZevUBLq_02znJNMd-1" value="start" style="ellipse;whiteSpace=wrap;html=1;" vertex="1" parent="1">
          <mxGeometry x="160" y="70" width="120" height="80" as="geometry" />
        </mxCell>
        <mxCell id="vSl3ZevUBLq_02znJNMd-2" value="end" style="ellipse;whiteSpace=wrap;html=1;" vertex="1" parent="1">
          <mxGeometry x="160" y="374" width="120" height="80" as="geometry" />
        </mxCell>
        <mxCell id="vSl3ZevUBLq_02znJNMd-5" value="" style="edgeStyle=orthogonalEdgeStyle;rounded=0;orthogonalLoop=1;jettySize=auto;html=1;" edge="1" parent="1" source="vSl3ZevUBLq_02znJNMd-3" target="vSl3ZevUBLq_02znJNMd-2">
          <mxGeometry relative="1" as="geometry" />
        </mxCell>
        <mxCell id="vSl3ZevUBLq_02znJNMd-3" value="&lt;li&gt;&lt;p&gt;Виведення к-ті квадратів для 3 параметрів&lt;/p&gt;&lt;/li&gt;&lt;li&gt;&lt;p&gt;&lt;span style=&quot;background-color: initial;&quot;&gt;Виведення к-ті квадратів для 7 параметрів&lt;/span&gt;&lt;/p&gt;&lt;/li&gt;&lt;li&gt;&lt;p&gt;&lt;span style=&quot;background-color: initial;&quot;&gt;Виведення к-ті&amp;nbsp; квадратів для 11 параметрів&lt;/span&gt;&lt;/p&gt;&lt;/li&gt;" style="shape=parallelogram;perimeter=parallelogramPerimeter;whiteSpace=wrap;html=1;fixedSize=1;align=center;" vertex="1" parent="1">
          <mxGeometry x="30" y="200" width="380" height="140" as="geometry" />
        </mxCell>
        <mxCell id="vSl3ZevUBLq_02znJNMd-6" value="main" style="text;html=1;align=center;verticalAlign=middle;resizable=0;points=[];autosize=1;strokeColor=none;fillColor=none;" vertex="1" parent="1">
          <mxGeometry x="195" y="40" width="50" height="30" as="geometry" />
        </mxCell>
        <mxCell id="vSl3ZevUBLq_02znJNMd-10" value="" style="edgeStyle=orthogonalEdgeStyle;rounded=0;orthogonalLoop=1;jettySize=auto;html=1;" edge="1" parent="1" source="vSl3ZevUBLq_02znJNMd-7" target="vSl3ZevUBLq_02znJNMd-8">
          <mxGeometry relative="1" as="geometry" />
        </mxCell>
        <mxCell id="vSl3ZevUBLq_02znJNMd-7" value="va_list args&lt;div&gt;va_start(args, numArgs)&lt;/div&gt;&lt;div&gt;count=0&lt;/div&gt;" style="rounded=0;whiteSpace=wrap;html=1;" vertex="1" parent="1">
          <mxGeometry x="690" y="50" width="150" height="60" as="geometry" />
        </mxCell>
        <mxCell id="vSl3ZevUBLq_02znJNMd-11" value="" style="edgeStyle=orthogonalEdgeStyle;rounded=0;orthogonalLoop=1;jettySize=auto;html=1;" edge="1" parent="1" source="vSl3ZevUBLq_02znJNMd-8" target="vSl3ZevUBLq_02znJNMd-9">
          <mxGeometry relative="1" as="geometry" />
        </mxCell>
        <mxCell id="vSl3ZevUBLq_02znJNMd-8" value="i=0" style="rounded=0;whiteSpace=wrap;html=1;" vertex="1" parent="1">
          <mxGeometry x="705" y="150" width="120" height="60" as="geometry" />
        </mxCell>
        <mxCell id="vSl3ZevUBLq_02znJNMd-13" value="" style="edgeStyle=orthogonalEdgeStyle;rounded=0;orthogonalLoop=1;jettySize=auto;html=1;" edge="1" parent="1" source="vSl3ZevUBLq_02znJNMd-9" target="vSl3ZevUBLq_02znJNMd-12">
          <mxGeometry relative="1" as="geometry" />
        </mxCell>
        <mxCell id="vSl3ZevUBLq_02znJNMd-23" style="edgeStyle=orthogonalEdgeStyle;rounded=0;orthogonalLoop=1;jettySize=auto;html=1;entryX=0;entryY=0.5;entryDx=0;entryDy=0;" edge="1" parent="1" source="vSl3ZevUBLq_02znJNMd-9" target="vSl3ZevUBLq_02znJNMd-20">
          <mxGeometry relative="1" as="geometry">
            <Array as="points">
              <mxPoint x="570" y="280" />
              <mxPoint x="570" y="700" />
            </Array>
          </mxGeometry>
        </mxCell>
        <mxCell id="vSl3ZevUBLq_02znJNMd-9" value="&lt;font color=&quot;#9cdcfe&quot;&gt;i&amp;lt;numArgs&lt;/font&gt;" style="rhombus;whiteSpace=wrap;html=1;" vertex="1" parent="1">
          <mxGeometry x="702.5" y="240" width="125" height="80" as="geometry" />
        </mxCell>
        <mxCell id="vSl3ZevUBLq_02znJNMd-15" value="" style="edgeStyle=orthogonalEdgeStyle;rounded=0;orthogonalLoop=1;jettySize=auto;html=1;" edge="1" parent="1" source="vSl3ZevUBLq_02znJNMd-12" target="vSl3ZevUBLq_02znJNMd-14">
          <mxGeometry relative="1" as="geometry" />
        </mxCell>
        <mxCell id="vSl3ZevUBLq_02znJNMd-12" value="&lt;div&gt;int num = va_arg(args, int);&lt;/div&gt;&lt;div&gt;&amp;nbsp; &amp;nbsp; &amp;nbsp; &amp;nbsp; int sqrtNum = static_cast&amp;lt;int&amp;gt;(sqrt(num));&lt;/div&gt;" style="rounded=0;whiteSpace=wrap;html=1;" vertex="1" parent="1">
          <mxGeometry x="632.5" y="354" width="265" height="66" as="geometry" />
        </mxCell>
        <mxCell id="vSl3ZevUBLq_02znJNMd-17" value="" style="edgeStyle=orthogonalEdgeStyle;rounded=0;orthogonalLoop=1;jettySize=auto;html=1;" edge="1" parent="1" source="vSl3ZevUBLq_02znJNMd-14" target="vSl3ZevUBLq_02znJNMd-16">
          <mxGeometry relative="1" as="geometry" />
        </mxCell>
        <mxCell id="vSl3ZevUBLq_02znJNMd-21" style="edgeStyle=orthogonalEdgeStyle;rounded=0;orthogonalLoop=1;jettySize=auto;html=1;entryX=0;entryY=0.5;entryDx=0;entryDy=0;" edge="1" parent="1" source="vSl3ZevUBLq_02znJNMd-14" target="vSl3ZevUBLq_02znJNMd-20">
          <mxGeometry relative="1" as="geometry">
            <Array as="points">
              <mxPoint x="640" y="493" />
              <mxPoint x="640" y="700" />
            </Array>
          </mxGeometry>
        </mxCell>
        <mxCell id="vSl3ZevUBLq_02znJNMd-14" value="sqrtNum * sqrtNum == num" style="rhombus;whiteSpace=wrap;html=1;" vertex="1" parent="1">
          <mxGeometry x="672.5" y="460" width="185" height="66" as="geometry" />
        </mxCell>
        <mxCell id="vSl3ZevUBLq_02znJNMd-16" value="++count" style="rounded=0;whiteSpace=wrap;html=1;" vertex="1" parent="1">
          <mxGeometry x="705" y="560" width="120" height="60" as="geometry" />
        </mxCell>
        <mxCell id="vSl3ZevUBLq_02znJNMd-19" value="" style="edgeStyle=orthogonalEdgeStyle;rounded=0;orthogonalLoop=1;jettySize=auto;html=1;" edge="1" parent="1" source="vSl3ZevUBLq_02znJNMd-18" target="vSl3ZevUBLq_02znJNMd-7">
          <mxGeometry relative="1" as="geometry" />
        </mxCell>
        <mxCell id="vSl3ZevUBLq_02znJNMd-18" value="start" style="ellipse;whiteSpace=wrap;html=1;" vertex="1" parent="1">
          <mxGeometry x="705" y="-70" width="120" height="80" as="geometry" />
        </mxCell>
        <mxCell id="vSl3ZevUBLq_02znJNMd-20" value="end" style="ellipse;whiteSpace=wrap;html=1;" vertex="1" parent="1">
          <mxGeometry x="705" y="660" width="120" height="80" as="geometry" />
        </mxCell>
        <mxCell id="vSl3ZevUBLq_02znJNMd-24" value="false" style="text;html=1;align=center;verticalAlign=middle;resizable=0;points=[];autosize=1;strokeColor=none;fillColor=none;" vertex="1" parent="1">
          <mxGeometry x="635" y="258" width="50" height="30" as="geometry" />
        </mxCell>
        <mxCell id="vSl3ZevUBLq_02znJNMd-25" value="true" style="text;html=1;align=center;verticalAlign=middle;resizable=0;points=[];autosize=1;strokeColor=none;fillColor=none;" vertex="1" parent="1">
          <mxGeometry x="760" y="318" width="40" height="30" as="geometry" />
        </mxCell>
        <mxCell id="vSl3ZevUBLq_02znJNMd-26" value="true" style="text;html=1;align=center;verticalAlign=middle;resizable=0;points=[];autosize=1;strokeColor=none;fillColor=none;" vertex="1" parent="1">
          <mxGeometry x="770" y="528" width="40" height="30" as="geometry" />
        </mxCell>
        <mxCell id="vSl3ZevUBLq_02znJNMd-27" value="false" style="text;html=1;align=center;verticalAlign=middle;resizable=0;points=[];autosize=1;strokeColor=none;fillColor=none;" vertex="1" parent="1">
          <mxGeometry x="635" y="470" width="50" height="30" as="geometry" />
        </mxCell>
      </root>
    </mxGraphModel>
  </diagram>
</mxfile>
